<svg xmlns="http://www.w3.org/2000/svg" width="1440" height="3600" viewBox="0 0 1440 3600" role="img" aria-labelledby="title desc">
  <title id="title">Compass Platform Capability Roadmap</title>
  <desc id="desc">Executive infographic showing the Compass Surfaces, Spine, and Brain architecture, whole-capability delivery contract, six ordered milestones, and common release gates.</desc>
  <defs>
    <linearGradient id="hero" x1="0" y1="0" x2="1" y2="1">
      <stop offset="0" stop-color="#051d46"/>
      <stop offset="0.63" stop-color="#08285e"/>
      <stop offset="1" stop-color="#0d3777"/>
    </linearGradient>
    <linearGradient id="purple" x1="0" y1="0" x2="1" y2="1">
      <stop offset="0" stop-color="#5c1b53"/>
      <stop offset="1" stop-color="#311c4d"/>
    </linearGradient>
    <filter id="shadow" x="-20%" y="-20%" width="140%" height="160%">
      <feDropShadow dx="0" dy="18" stdDeviation="26" flood-color="#08285e" flood-opacity="0.12"/>
    </filter>
    <style>
      .sans { font-family: Geist, Inter, -apple-system, BlinkMacSystemFont, "Segoe UI", Arial, sans-serif; }
      .eyebrow { font-size: 14px; font-weight: 800; letter-spacing: 2.1px; fill: #f4454e; }
      .heroTitle { font-size: 72px; font-weight: 760; letter-spacing: -3.5px; fill: #fff; }
      .heroCopy { font-size: 22px; font-weight: 400; fill: #c4cede; }
      .sectionNum { font-size: 13px; font-weight: 850; letter-spacing: 1.8px; fill: #f4454e; }
      .sectionTitle { font-size: 43px; font-weight: 760; letter-spacing: -1.8px; fill: #08285e; }
      .sectionTitleWhite { font-size: 43px; font-weight: 760; letter-spacing: -1.8px; fill: #fff; }
      .lede { font-size: 17px; fill: #58677c; }
      .ledeWhite { font-size: 17px; fill: #aebbd0; }
      .cardTitle { font-size: 24px; font-weight: 750; letter-spacing: -0.6px; fill: #08285e; }
      .body { font-size: 15px; fill: #58677c; }
      .small { font-size: 13px; fill: #58677c; }
      .tiny { font-size: 11px; font-weight: 800; letter-spacing: 1.1px; fill: #436db3; }
      .white { fill: #fff; }
      .mutedWhite { fill: #bdc7d7; }
      .bold { font-weight: 750; }
    </style>
  </defs>

  <rect width="1440" height="3600" fill="#f7f3ef"/>
  <circle cx="90" cy="670" r="280" fill="#bfd0ee" opacity="0.23"/>
  <circle cx="1360" cy="1660" r="220" fill="#f4454e" opacity="0.05"/>

  <!-- HERO -->
  <rect width="1440" height="660" fill="url(#hero)"/>
  <circle cx="1330" cy="-80" r="330" fill="none" stroke="#fff" stroke-opacity="0.13"/>
  <circle cx="1330" cy="-80" r="250" fill="none" stroke="#fff" stroke-opacity="0.07"/>
  <circle cx="1330" cy="-80" r="170" fill="none" stroke="#fff" stroke-opacity="0.06"/>
  <g class="sans" transform="translate(80 58)">
    <g transform="translate(0 0)">
      <path d="M16 0v32M0 16h32M5 5l22 22M27 5L5 27" stroke="#f4454e" stroke-width="5" stroke-linecap="round"/>
      <text x="49" y="22" font-size="14" font-weight="760" letter-spacing="1.2" fill="#fff">STELLARUS · COMPASS PLATFORM</text>
    </g>
    <rect x="1050" y="-5" width="230" height="34" rx="17" fill="none" stroke="#fff" stroke-opacity="0.24"/>
    <text x="1165" y="17" text-anchor="middle" font-size="12" font-weight="700" letter-spacing="1.1" fill="#c3cedf">EXECUTIVE ROADMAP</text>

    <text x="0" y="116" class="eyebrow">WHOLE CAPABILITIES. ONE GOVERNED PLATFORM.</text>
    <text x="0" y="175" class="heroTitle">From conversations to</text>
    <text x="0" y="241" class="heroTitle">grounded healthcare</text>
    <text x="0" y="307" class="heroTitle">resolutions.</text>
    <text x="0" y="351" class="heroCopy">Compass connects Member, CSR, and Provider experiences to reusable</text>
    <text x="0" y="380" class="heroCopy">healthcare capabilities—one complete product increment at a time.</text>

    <g transform="translate(915 112)">
      <rect width="365" height="190" rx="24" fill="#fff" fill-opacity="0.075" stroke="#fff" stroke-opacity="0.18"/>
      <text x="27" y="42" font-size="18" font-weight="760" fill="#fff">CSR Chat becomes a Compass surface.</text>
      <text x="27" y="76" font-size="14" fill="#bac5d6">The experience remains purpose-built while</text>
      <text x="27" y="99" font-size="14" fill="#bac5d6">context, knowledge, actions, and outcomes</text>
      <text x="27" y="122" font-size="14" fill="#bac5d6">move through the shared platform contract.</text>
      <line x1="27" y1="145" x2="338" y2="145" stroke="#fff" stroke-opacity="0.14"/>
      <text x="27" y="170" font-size="12" font-weight="700" letter-spacing="0.8" fill="#f4454e">CONVERGE ONCE · EXPAND BY CAPABILITY</text>
    </g>

    <g transform="translate(0 427)">
      <rect width="360" height="142" rx="21" fill="#fff" fill-opacity="0.06" stroke="#fff" stroke-opacity="0.17"/>
      <text x="22" y="30" class="eyebrow">SURFACES</text>
      <text x="22" y="61" font-size="21" font-weight="740" fill="#fff">Member · CSR · Provider</text>
      <text x="22" y="91" font-size="13" fill="#b8c3d4">Persona, presentation, policy, and</text>
      <text x="22" y="112" font-size="13" fill="#b8c3d4">channel experience</text>
      <text x="386" y="83" font-size="34" fill="#f4454e">→</text>

      <rect x="440" width="430" height="142" rx="21" fill="#fff"/>
      <text x="463" y="30" class="eyebrow">SPINE</text>
      <text x="463" y="61" font-size="21" font-weight="740" fill="#08285e">Auth → Broker → AI Agents</text>
      <text x="463" y="91" font-size="13" fill="#58677c">Identity, context, routing, state, safety,</text>
      <text x="463" y="112" font-size="13" fill="#58677c">actions, and telemetry</text>
      <text x="896" y="83" font-size="34" fill="#f4454e">→</text>

      <rect x="950" width="330" height="142" rx="21" fill="#fff" fill-opacity="0.06" stroke="#fff" stroke-opacity="0.17"/>
      <text x="972" y="30" class="eyebrow">BRAIN</text>
      <text x="972" y="61" font-size="21" font-weight="740" fill="#fff">Governed knowledge</text>
      <text x="972" y="91" font-size="13" fill="#b8c3d4">Trusted data with provenance,</text>
      <text x="972" y="112" font-size="13" fill="#b8c3d4">freshness, and policy controls</text>
    </g>
  </g>

  <!-- STRATEGIC MOVEMENT -->
  <g class="sans" transform="translate(80 734)">
    <text class="sectionNum" x="0" y="0">01 · STRATEGIC MOVEMENT</text>
    <text class="sectionTitle" x="0" y="54">Converge once. Expand by capability.</text>
    <text class="lede" x="780" y="8">Move from surface-specific conversational delivery to a shared</text>
    <text class="lede" x="780" y="34">capability model—without turning the roadmap into a migration chain.</text>

    <g transform="translate(0 95)" filter="url(#shadow)">
      <rect width="815" height="395" rx="30" fill="#fff" stroke="#08285e" stroke-opacity="0.12"/>
      <rect x="28" y="30" width="334" height="283" rx="22" fill="#f4f5f7"/>
      <text x="53" y="65" class="tiny">FROM · CURRENT STATE</text>
      <text x="53" y="108" class="cardTitle">Experience-led work with</text>
      <text x="53" y="138" class="cardTitle">fragmented platform seams</text>
      <text x="53" y="177" class="body">Benefits Inquiry is the reference flow.</text>
      <text x="53" y="201" class="body">CSR Chat is in flight across surface,</text>
      <text x="53" y="225" class="body">runtime, data, and workflow boundaries.</text>

      <text x="386" y="184" font-size="34" fill="#f4454e">→</text>

      <rect x="430" y="30" width="357" height="283" rx="22" fill="#08285e"/>
      <text x="455" y="65" class="tiny" fill="#8fb0e5">TO · TARGET STATE</text>
      <text x="455" y="108" class="cardTitle white">One governed platform with</text>
      <text x="455" y="138" class="cardTitle white">reusable capability units</text>
      <text x="455" y="177" class="body mutedWhite">Every surface reaches versioned contracts</text>
      <text x="455" y="201" class="body mutedWhite">for identity, routing, knowledge, response,</text>
      <text x="455" y="225" class="body mutedWhite">action, and outcomes.</text>

      <circle cx="46" cy="352" r="5" fill="#f4454e"/>
      <text x="62" y="358" font-size="14" font-weight="690" fill="#08285e">Benefits Inquiry establishes the reference foundation; every milestone adds value and platform strength.</text>
    </g>

    <g transform="translate(840 95)" filter="url(#shadow)">
      <rect width="440" height="395" rx="30" fill="url(#purple)"/>
      <circle cx="420" cy="370" r="120" fill="none" stroke="#fff" stroke-opacity="0.12"/>
      <circle cx="420" cy="370" r="78" fill="none" stroke="#fff" stroke-opacity="0.09"/>
      <text x="31" y="40" font-size="12" font-weight="850" letter-spacing="1.5" fill="#d8bcd3">NORTH-STAR OUTCOME</text>
      <text x="31" y="133" font-size="79" font-weight="780" letter-spacing="-4" fill="#fff">≥95%</text>
      <text x="31" y="170" font-size="22" font-weight="730" fill="#fff">Grounded Resolution Rate</text>
      <text x="31" y="204" font-size="14" fill="#d4c3d3">Eligible inquiries correctly resolved with trusted</text>
      <text x="31" y="226" font-size="14" fill="#d4c3d3">evidence, appropriate context, and a usable answer.</text>
      <line x1="31" y1="274" x2="409" y2="274" stroke="#fff" stroke-opacity="0.16"/>
      <text x="31" y="312" font-size="22" font-weight="760" fill="#fff">≥99%</text>
      <text x="31" y="336" font-size="12" fill="#d4c3d3">SAFE HANDLING RATE</text>
      <text x="235" y="312" font-size="22" font-weight="760" fill="#fff">100%</text>
      <text x="235" y="336" font-size="12" fill="#d4c3d3">TURNS WITH TYPED OUTCOME</text>
    </g>
  </g>

  <!-- WHOLE CAPABILITY -->
  <g class="sans" transform="translate(80 1308)">
    <text class="sectionNum" x="0" y="0">02 · DELIVERY CONTRACT</text>
    <text class="sectionTitle" x="0" y="54">Every milestone ships whole.</text>
    <text class="lede" x="760" y="8">A capability is complete only when experience, intelligence,</text>
    <text class="lede" x="760" y="34">trust controls, and operations can stand on their own.</text>

    <g transform="translate(0 95)" filter="url(#shadow)">
      <rect width="1280" height="440" rx="30" fill="#fff" stroke="#08285e" stroke-opacity="0.12"/>

      <g transform="translate(30 30)">
        <rect width="293" height="275" rx="21" fill="#f4f6f9"/>
        <rect width="293" height="5" rx="2.5" fill="#436db3"/>
        <text x="21" y="37" class="tiny">01 · PRODUCT</text>
        <text x="21" y="72" class="cardTitle">Defined experience</text>
        <circle cx="24" cy="108" r="3" fill="#f4454e"/><text x="37" y="113" class="small">Scope, taxonomy, and journeys</text>
        <circle cx="24" cy="141" r="3" fill="#f4454e"/><text x="37" y="146" class="small">Surface and persona behavior</text>
        <circle cx="24" cy="174" r="3" fill="#f4454e"/><text x="37" y="179" class="small">Structured answer by default</text>
        <circle cx="24" cy="207" r="3" fill="#f4454e"/><text x="37" y="212" class="small">Configurable response variants</text>
      </g>

      <g transform="translate(338 30)">
        <rect width="293" height="275" rx="21" fill="#f4f6f9"/>
        <rect width="293" height="5" rx="2.5" fill="#5c1b53"/>
        <text x="21" y="37" class="tiny">02 · TRUST</text>
        <text x="21" y="72" class="cardTitle">Authorized context</text>
        <circle cx="24" cy="108" r="3" fill="#f4454e"/><text x="37" y="113" class="small">Actor, subject, tenant, consent</text>
        <circle cx="24" cy="141" r="3" fill="#f4454e"/><text x="37" y="146" class="small">Governed Brain tools + freshness</text>
        <circle cx="24" cy="174" r="3" fill="#f4454e"/><text x="37" y="179" class="small">Provenance and safe boundaries</text>
        <circle cx="24" cy="207" r="3" fill="#f4454e"/><text x="37" y="212" class="small">Clarify, abstain, or escalate</text>
      </g>

      <g transform="translate(646 30)">
        <rect width="293" height="275" rx="21" fill="#f4f6f9"/>
        <rect width="293" height="5" rx="2.5" fill="#f4454e"/>
        <text x="21" y="37" class="tiny">03 · INTELLIGENCE</text>
        <text x="21" y="72" class="cardTitle">Brokered capability</text>
        <circle cx="24" cy="108" r="3" fill="#f4454e"/><text x="37" y="113" class="small">Explicit and inferred routing</text>
        <circle cx="24" cy="141" r="3" fill="#f4454e"/><text x="37" y="146" class="small">One primary capability per turn</text>
        <circle cx="24" cy="174" r="3" fill="#f4454e"/><text x="37" y="179" class="small">Agent retrieval through policy</text>
        <circle cx="24" cy="207" r="3" fill="#f4454e"/><text x="37" y="212" class="small">Optional prefetch + suggestions</text>
      </g>

      <g transform="translate(954 30)">
        <rect width="296" height="275" rx="21" fill="#f4f6f9"/>
        <rect width="296" height="5" rx="2.5" fill="#08285e"/>
        <text x="21" y="37" class="tiny">04 · OPERATIONS</text>
        <text x="21" y="72" class="cardTitle">Measurable control</text>
        <circle cx="24" cy="108" r="3" fill="#f4454e"/><text x="37" y="113" class="small">Typed outcomes + telemetry</text>
        <circle cx="24" cy="141" r="3" fill="#f4454e"/><text x="37" y="146" class="small">Evaluation, GRR, Safe Handling</text>
        <circle cx="24" cy="174" r="3" fill="#f4454e"/><text x="37" y="179" class="small">Cohorts, SLOs, and runbook</text>
        <circle cx="24" cy="207" r="3" fill="#f4454e"/><text x="37" y="212" class="small">Rollback by capability version</text>
      </g>

      <line x1="30" y1="332" x2="1250" y2="332" stroke="#08285e" stroke-opacity="0.14"/>
      <text x="30" y="367" font-size="13" font-weight="760" fill="#08285e">ACTIONS</text>
      <text x="98" y="367" class="small">Surface-initiated by default; agent-recommended when configured.</text>
      <text x="491" y="367" font-size="13" font-weight="760" fill="#08285e">EXECUTION</text>
      <text x="579" y="367" class="small">Broker authorizes, confirms, executes, audits.</text>
      <text x="920" y="367" font-size="13" font-weight="760" fill="#08285e">OUTCOMES</text>
      <text x="1004" y="367" class="small">Resolve · clarify · abstain · act · escalate.</text>
    </g>
  </g>

  <!-- ROADMAP -->
  <rect x="0" y="1910" width="1440" height="1085" fill="url(#hero)"/>
  <circle cx="120" cy="2120" r="240" fill="#436db3" opacity="0.20"/>
  <g class="sans" transform="translate(80 1990)">
    <text class="sectionNum" x="0" y="0">03 · DEFAULT MILESTONE ORDER</text>
    <text class="sectionTitleWhite" x="0" y="54">Six complete capability increments.</text>
    <text class="ledeWhite" x="760" y="8">The baseline sequence compounds learning—from grounded answers</text>
    <text class="ledeWhite" x="760" y="34">and contextual authorization to high-assurance transactions.</text>
    <rect x="0" y="82" width="1280" height="50" rx="16" fill="#fff" fill-opacity="0.055" stroke="#fff" stroke-opacity="0.14"/>
    <text x="18" y="113" font-size="13" fill="#c4cede"><tspan font-weight="760" fill="#fff">Baseline sequence:</tspan> value first, then progressively richer context and action assurance.</text>
    <text x="1262" y="113" text-anchor="end" font-size="13" fill="#c4cede">Capability units may move as a whole.</text>

    <!-- Row 1 -->
    <g transform="translate(0 160)">
      <rect width="625" height="225" rx="28" fill="#fff"/>
      <rect x="25" y="25" width="58" height="58" rx="18" fill="#08285e"/>
      <text x="54" y="63" text-anchor="middle" font-size="26" font-weight="800" fill="#fff">1</text>
      <text x="108" y="56" font-size="28" font-weight="760" letter-spacing="-1" fill="#08285e">Eligibility</text>
      <text x="598" y="36" text-anchor="end" class="tiny">INDEPENDENT RELEASE UNIT</text>
      <text x="108" y="91" class="body">Resolve coverage status, dates, plan context, and restrictions</text>
      <text x="108" y="114" class="body">for the right person at the right point in time.</text>
      <line x1="108" y1="144" x2="594" y2="144" stroke="#08285e" stroke-opacity="0.14"/>
      <text x="108" y="173" font-size="11" font-weight="850" letter-spacing="1.1" fill="#f4454e">HARDENS</text>
      <text x="175" y="173" class="small">actor vs. subject auth · provider access · point-in-time context</text>
    </g>
    <g transform="translate(655 160)">
      <rect width="625" height="225" rx="28" fill="#fff"/>
      <rect x="25" y="25" width="58" height="58" rx="18" fill="#436db3"/>
      <text x="54" y="63" text-anchor="middle" font-size="26" font-weight="800" fill="#fff">2</text>
      <text x="108" y="56" font-size="28" font-weight="760" letter-spacing="-1" fill="#08285e">Claims</text>
      <text x="598" y="36" text-anchor="end" class="tiny">INDEPENDENT RELEASE UNIT</text>
      <text x="108" y="91" class="body">Explain status, adjudication, member responsibility, denial</text>
      <text x="108" y="114" class="body">context, and next steps across multiple records.</text>
      <line x1="108" y1="144" x2="594" y2="144" stroke="#08285e" stroke-opacity="0.14"/>
      <text x="108" y="173" font-size="11" font-weight="850" letter-spacing="1.1" fill="#f4454e">HARDENS</text>
      <text x="175" y="173" class="small">PHI minimization · record clarification · explainable codes</text>
    </g>

    <!-- Row 2 -->
    <g transform="translate(0 405)">
      <rect width="625" height="225" rx="28" fill="#fff"/>
      <rect x="25" y="25" width="58" height="58" rx="18" fill="#5c1b53"/>
      <text x="54" y="63" text-anchor="middle" font-size="26" font-weight="800" fill="#fff">3</text>
      <text x="108" y="56" font-size="28" font-weight="760" letter-spacing="-1" fill="#08285e">Accumulators</text>
      <text x="598" y="36" text-anchor="end" class="tiny">INDEPENDENT RELEASE UNIT</text>
      <text x="108" y="91" class="body">Ground deductible and out-of-pocket balances by individual</text>
      <text x="108" y="114" class="body">or family, network, benefit period, and authoritative as-of date.</text>
      <line x1="108" y1="144" x2="594" y2="144" stroke="#08285e" stroke-opacity="0.14"/>
      <text x="108" y="173" font-size="11" font-weight="850" letter-spacing="1.1" fill="#f4454e">HARDENS</text>
      <text x="175" y="173" class="small">financial precision · effective periods · reconciliation</text>
    </g>
    <g transform="translate(655 405)">
      <rect width="625" height="225" rx="28" fill="#fff"/>
      <rect x="25" y="25" width="58" height="58" rx="18" fill="#08285e"/>
      <text x="54" y="63" text-anchor="middle" font-size="26" font-weight="800" fill="#fff">4</text>
      <text x="108" y="56" font-size="28" font-weight="760" letter-spacing="-1" fill="#08285e">Formulary</text>
      <text x="598" y="36" text-anchor="end" class="tiny">INDEPENDENT RELEASE UNIT</text>
      <text x="108" y="91" class="body">Clarify drug coverage, tier, prior authorization, step therapy,</text>
      <text x="108" y="114" class="body">and quantity limits within explicit clinical boundaries.</text>
      <line x1="108" y1="144" x2="594" y2="144" stroke="#08285e" stroke-opacity="0.14"/>
      <text x="108" y="173" font-size="11" font-weight="850" letter-spacing="1.1" fill="#f4454e">HARDENS</text>
      <text x="175" y="173" class="small">entity normalization · policy versions · clinical boundaries</text>
    </g>

    <!-- Row 3 -->
    <g transform="translate(0 650)">
      <rect width="625" height="225" rx="28" fill="#fff"/>
      <rect x="25" y="25" width="58" height="58" rx="18" fill="#436db3"/>
      <text x="54" y="63" text-anchor="middle" font-size="26" font-weight="800" fill="#fff">5</text>
      <text x="108" y="56" font-size="28" font-weight="760" letter-spacing="-1" fill="#08285e">Provider Lookup</text>
      <text x="598" y="36" text-anchor="end" class="tiny">INDEPENDENT RELEASE UNIT</text>
      <text x="108" y="91" class="body">Find and rank providers using specialty, location, network,</text>
      <text x="108" y="114" class="body">accessibility, and fresh directory context.</text>
      <line x1="108" y1="144" x2="594" y2="144" stroke="#08285e" stroke-opacity="0.14"/>
      <text x="108" y="173" font-size="11" font-weight="850" letter-spacing="1.1" fill="#f4454e">HARDENS</text>
      <text x="175" y="173" class="small">search + ranking · freshness · stable ProviderReference</text>
    </g>
    <g transform="translate(655 650)">
      <rect width="625" height="225" rx="28" fill="#fff"/>
      <rect x="25" y="25" width="58" height="58" rx="18" fill="#f4454e"/>
      <text x="54" y="63" text-anchor="middle" font-size="26" font-weight="800" fill="#fff">6</text>
      <text x="108" y="56" font-size="28" font-weight="760" letter-spacing="-1" fill="#08285e">Provider Scheduling</text>
      <text x="598" y="36" text-anchor="end" class="tiny">INDEPENDENT RELEASE UNIT</text>
      <text x="108" y="91" class="body">Find availability and safely book, reschedule, or cancel with</text>
      <text x="108" y="114" class="body">explicit confirmation and transparent action status.</text>
      <line x1="108" y1="144" x2="594" y2="144" stroke="#08285e" stroke-opacity="0.14"/>
      <text x="108" y="173" font-size="11" font-weight="850" letter-spacing="1.1" fill="#f4454e">HARDENS</text>
      <text x="175" y="173" class="small">idempotency · audit + compensation · concurrency</text>
    </g>
  </g>

  <!-- RELEASE DISCIPLINE -->
  <g class="sans" transform="translate(80 3070)">
    <text class="sectionNum" x="0" y="0">04 · RELEASE DISCIPLINE</text>
    <text class="sectionTitle" x="0" y="54">Quality is shared. Release is independent.</text>

    <g transform="translate(0 92)" filter="url(#shadow)">
      <rect width="790" height="345" rx="30" fill="#fff" stroke="#08285e" stroke-opacity="0.12"/>
      <text x="30" y="45" font-size="27" font-weight="760" letter-spacing="-0.7" fill="#08285e">Common exit gates</text>
      <text x="760" y="43" text-anchor="end" class="tiny">BEFORE COHORT RELEASE</text>
      <g transform="translate(30 73)">
        <rect width="230" height="95" rx="17" fill="#f4f6f9"/>
        <text x="17" y="35" font-size="23" font-weight="760" fill="#08285e">≥100</text>
        <text x="17" y="61" font-size="12" fill="#58677c">representative evaluation</text><text x="17" y="78" font-size="12" fill="#58677c">scenarios per capability</text>
        <rect x="245" width="230" height="95" rx="17" fill="#f4f6f9"/>
        <text x="262" y="35" font-size="23" font-weight="760" fill="#08285e">100%</text>
        <text x="262" y="61" font-size="12" fill="#58677c">successful answers carry</text><text x="262" y="78" font-size="12" fill="#58677c">provenance + freshness</text>
        <rect x="490" width="230" height="95" rx="17" fill="#f4f6f9"/>
        <text x="507" y="35" font-size="23" font-weight="760" fill="#08285e">Zero</text>
        <text x="507" y="61" font-size="12" fill="#58677c">cross-tenant access or critical</text><text x="507" y="78" font-size="12" fill="#58677c">unsupported factual claims</text>
        <rect y="111" width="720" height="97" rx="17" fill="#f4f6f9"/>
        <text x="17" y="148" font-size="18" font-weight="760" fill="#08285e">100% action assurance</text>
        <text x="17" y="176" font-size="12" fill="#58677c">Every side effect is authorized, idempotent, confirmed, and audited; capability SLOs approved before release.</text>
      </g>
    </g>

    <g transform="translate(815 92)" filter="url(#shadow)">
      <rect width="465" height="345" rx="30" fill="#08285e"/>
      <text x="29" y="44" font-size="27" font-weight="760" letter-spacing="-0.7" fill="#fff">Sequence can change.</text>
      <text x="29" y="75" font-size="27" font-weight="760" letter-spacing="-0.7" fill="#fff">Product integrity cannot.</text>
      <g transform="translate(29 104)">
        <circle cx="14" cy="14" r="14" fill="#f4454e"/><text x="14" y="19" text-anchor="middle" font-size="14" font-weight="800" fill="#fff">✓</text>
        <text x="43" y="11" font-size="14" font-weight="730" fill="#fff">Platform contracts—not prior capabilities.</text>
        <text x="43" y="31" font-size="12" fill="#b8c3d4">Claims need not require Eligibility.</text>
        <line x1="0" y1="52" x2="407" y2="52" stroke="#fff" stroke-opacity="0.13"/>

        <circle cx="14" cy="79" r="14" fill="#f4454e"/><text x="14" y="84" text-anchor="middle" font-size="14" font-weight="800" fill="#fff">✓</text>
        <text x="43" y="76" font-size="14" font-weight="730" fill="#fff">Optional composition; graceful degradation.</text>
        <text x="43" y="96" font-size="12" fill="#b8c3d4">Missing capabilities stay safe and transparent.</text>
        <line x1="0" y1="117" x2="407" y2="117" stroke="#fff" stroke-opacity="0.13"/>

        <circle cx="14" cy="144" r="14" fill="#f4454e"/><text x="14" y="149" text-anchor="middle" font-size="14" font-weight="800" fill="#fff">✓</text>
        <text x="43" y="141" font-size="14" font-weight="730" fill="#fff">Own rollout, telemetry, and rollback.</text>
        <text x="43" y="161" font-size="12" fill="#b8c3d4">Enable by tenant, surface, and version.</text>
        <line x1="0" y1="182" x2="407" y2="182" stroke="#fff" stroke-opacity="0.13"/>

        <circle cx="14" cy="209" r="14" fill="#f4454e"/><text x="14" y="214" text-anchor="middle" font-size="14" font-weight="800" fill="#fff">✓</text>
        <text x="43" y="206" font-size="14" font-weight="730" fill="#fff">Portable references preserve independence.</text>
        <text x="43" y="226" font-size="12" fill="#b8c3d4">Scheduling accepts approved ProviderReference.</text>
      </g>
    </g>
  </g>

  <g class="sans" transform="translate(80 3542)">
    <text x="0" y="0" font-size="12" font-weight="800" letter-spacing="1.2" fill="#08285e" opacity="0.48">COMPASS PLATFORM · CAPABILITY-ORIENTED DELIVERY</text>
    <text x="1280" y="0" text-anchor="end" font-size="12" font-weight="800" letter-spacing="1.2" fill="#08285e" opacity="0.48">STELLARUS</text>
  </g>
</svg>
